<svg id="visual" viewBox="0 0 900 600" width="900" height="600" xmlns="http://www.w3.org/2000/svg" xmlns:xlink="http://www.w3.org/1999/xlink" version="1.1"><rect x="0" y="0" width="900" height="600" fill="#001220"></rect><defs><linearGradient id="grad1_0" x1="33.3%" y1="0%" x2="100%" y2="100%"><stop offset="20%" stop-color="#068fff" stop-opacity="1"></stop><stop offset="80%" stop-color="#068fff" stop-opacity="1"></stop></linearGradient></defs><defs><linearGradient id="grad1_1" x1="33.3%" y1="0%" x2="100%" y2="100%"><stop offset="20%" stop-color="#068fff" stop-opacity="1"></stop><stop offset="80%" stop-color="#007cdc" stop-opacity="1"></stop></linearGradient></defs><defs><linearGradient id="grad1_2" x1="33.3%" y1="0%" x2="100%" y2="100%"><stop offset="20%" stop-color="#006ab9" stop-opacity="1"></stop><stop offset="80%" stop-color="#007cdc" stop-opacity="1"></stop></linearGradient></defs><defs><linearGradient id="grad1_3" x1="33.3%" y1="0%" x2="100%" y2="100%"><stop offset="20%" stop-color="#006ab9" stop-opacity="1"></stop><stop offset="80%" stop-color="#005797" stop-opacity="1"></stop></linearGradient></defs><defs><linearGradient id="grad1_4" x1="33.3%" y1="0%" x2="100%" y2="100%"><stop offset="20%" stop-color="#004577" stop-opacity="1"></stop><stop offset="80%" stop-color="#005797" stop-opacity="1"></stop></linearGradient></defs><defs><linearGradient id="grad1_5" x1="33.3%" y1="0%" x2="100%" y2="100%"><stop offset="20%" stop-color="#004577" stop-opacity="1"></stop><stop offset="80%" stop-color="#003458" stop-opacity="1"></stop></linearGradient></defs><defs><linearGradient id="grad1_6" x1="33.3%" y1="0%" x2="100%" y2="100%"><stop offset="20%" stop-color="#00233b" stop-opacity="1"></stop><stop offset="80%" stop-color="#003458" stop-opacity="1"></stop></linearGradient></defs><defs><linearGradient id="grad1_7" x1="33.3%" y1="0%" x2="100%" y2="100%"><stop offset="20%" stop-color="#00233b" stop-opacity="1"></stop><stop offset="80%" stop-color="#001220" stop-opacity="1"></stop></linearGradient></defs><defs><linearGradient id="grad2_0" x1="0%" y1="0%" x2="66.7%" y2="100%"><stop offset="20%" stop-color="#068fff" stop-opacity="1"></stop><stop offset="80%" stop-color="#068fff" stop-opacity="1"></stop></linearGradient></defs><defs><linearGradient id="grad2_1" x1="0%" y1="0%" x2="66.7%" y2="100%"><stop offset="20%" stop-color="#007cdc" stop-opacity="1"></stop><stop offset="80%" stop-color="#068fff" stop-opacity="1"></stop></linearGradient></defs><defs><linearGradient id="grad2_2" x1="0%" y1="0%" x2="66.7%" y2="100%"><stop offset="20%" stop-color="#007cdc" stop-opacity="1"></stop><stop offset="80%" stop-color="#006ab9" stop-opacity="1"></stop></linearGradient></defs><defs><linearGradient id="grad2_3" x1="0%" y1="0%" x2="66.7%" y2="100%"><stop offset="20%" stop-color="#005797" stop-opacity="1"></stop><stop offset="80%" stop-color="#006ab9" stop-opacity="1"></stop></linearGradient></defs><defs><linearGradient id="grad2_4" x1="0%" y1="0%" x2="66.7%" y2="100%"><stop offset="20%" stop-color="#005797" stop-opacity="1"></stop><stop offset="80%" stop-color="#004577" stop-opacity="1"></stop></linearGradient></defs><defs><linearGradient id="grad2_5" x1="0%" y1="0%" x2="66.7%" y2="100%"><stop offset="20%" stop-color="#003458" stop-opacity="1"></stop><stop offset="80%" stop-color="#004577" stop-opacity="1"></stop></linearGradient></defs><defs><linearGradient id="grad2_6" x1="0%" y1="0%" x2="66.7%" y2="100%"><stop offset="20%" stop-color="#003458" stop-opacity="1"></stop><stop offset="80%" stop-color="#00233b" stop-opacity="1"></stop></linearGradient></defs><defs><linearGradient id="grad2_7" x1="0%" y1="0%" x2="66.7%" y2="100%"><stop offset="20%" stop-color="#001220" stop-opacity="1"></stop><stop offset="80%" stop-color="#00233b" stop-opacity="1"></stop></linearGradient></defs><g transform="translate(900, 0)"><path d="M0 324.5C-44.9 296.1 -89.9 267.7 -141 244.2C-192.1 220.7 -249.4 202.1 -281 162.2C-312.6 122.4 -318.6 61.2 -324.5 0L0 0Z" fill="#021b2d"></path><path d="M0 283.9C-39.3 259.1 -78.6 234.2 -123.4 213.7C-168.1 193.1 -218.2 176.9 -245.9 142C-273.6 107.1 -278.7 53.5 -283.9 0L0 0Z" fill="#002b49"></path><path d="M0 243.4C-33.7 222.1 -67.4 200.8 -105.7 183.2C-144.1 165.5 -187.1 151.6 -210.8 121.7C-234.5 91.8 -238.9 45.9 -243.4 0L0 0Z" fill="#003c67"></path><path d="M0 202.8C-28.1 185.1 -56.2 167.3 -88.1 152.6C-120.1 138 -155.9 126.3 -175.6 101.4C-195.4 76.5 -199.1 38.2 -202.8 0L0 0Z" fill="#004e87"></path><path d="M0 162.2C-22.5 148.1 -44.9 133.9 -70.5 122.1C-96.1 110.4 -124.7 101.1 -140.5 81.1C-156.3 61.2 -159.3 30.6 -162.2 0L0 0Z" fill="#0060a8"></path><path d="M0 121.7C-16.9 111 -33.7 100.4 -52.9 91.6C-72 82.8 -93.5 75.8 -105.4 60.8C-117.2 45.9 -119.5 22.9 -121.7 0L0 0Z" fill="#0073ca"></path><path d="M0 81.1C-11.2 74 -22.5 66.9 -35.2 61.1C-48 55.2 -62.4 50.5 -70.3 40.6C-78.2 30.6 -79.6 15.3 -81.1 0L0 0Z" fill="#0086ed"></path><path d="M0 40.6C-5.6 37 -11.2 33.5 -17.6 30.5C-24 27.6 -31.2 25.3 -35.1 20.3C-39.1 15.3 -39.8 7.6 -40.6 0L0 0Z" fill="#068fff"></path></g><g transform="translate(0, 600)"><path d="M0 -324.5C34.5 -278.1 69.1 -231.7 121.5 -210.4C173.9 -189.2 244.2 -193.1 281 -162.2C317.8 -131.4 321.2 -65.7 324.5 0L0 0Z" fill="#021b2d"></path><path d="M0 -283.9C30.2 -243.3 60.4 -202.7 106.3 -184.1C152.2 -165.6 213.7 -169 245.9 -142C278.1 -114.9 281 -57.5 283.9 0L0 0Z" fill="#002b49"></path><path d="M0 -243.4C25.9 -208.6 51.8 -173.8 91.1 -157.8C130.4 -141.9 183.2 -144.8 210.8 -121.7C238.4 -98.5 240.9 -49.3 243.4 0L0 0Z" fill="#003c67"></path><path d="M0 -202.8C21.6 -173.8 43.2 -144.8 75.9 -131.5C108.7 -118.3 152.6 -120.7 175.6 -101.4C198.6 -82.1 200.7 -41.1 202.8 0L0 0Z" fill="#004e87"></path><path d="M0 -162.2C17.3 -139 34.5 -115.8 60.7 -105.2C87 -94.6 122.1 -96.6 140.5 -81.1C158.9 -65.7 160.6 -32.8 162.2 0L0 0Z" fill="#0060a8"></path><path d="M0 -121.7C13 -104.3 25.9 -86.9 45.6 -78.9C65.2 -71 91.6 -72.4 105.4 -60.8C119.2 -49.3 120.4 -24.6 121.7 0L0 0Z" fill="#0073ca"></path><path d="M0 -81.1C8.6 -69.5 17.3 -57.9 30.4 -52.6C43.5 -47.3 61.1 -48.3 70.3 -40.6C79.5 -32.8 80.3 -16.4 81.1 0L0 0Z" fill="#0086ed"></path><path d="M0 -40.6C4.3 -34.8 8.6 -29 15.2 -26.3C21.7 -23.7 30.5 -24.1 35.1 -20.3C39.7 -16.4 40.1 -8.2 40.6 0L0 0Z" fill="#068fff"></path></g></svg>